<?xml version="1.0" standalone="no"?>
<!DOCTYPE svg PUBLIC "-//W3C//DTD SVG 20010904//EN"
 "http://www.w3.org/TR/2001/REC-SVG-20010904/DTD/svg10.dtd">
<svg version="1.0" xmlns="http://www.w3.org/2000/svg"
 width="512.000000pt" height="512.000000pt" viewBox="0 0 512.000000 512.000000"
 preserveAspectRatio="xMidYMid meet">

<g transform="translate(0.000000,512.000000) scale(0.100000,-0.100000)"
fill="" stroke="none">
<path d="M2501 5094 c-43 -36 -224 -242 -299 -341 -295 -388 -484 -849 -543
-1326 l-12 -98 -66 -53 c-199 -159 -325 -373 -373 -631 -19 -101 -19 -1609 0
-1710 59 -320 231 -584 489 -752 140 -92 268 -141 437 -168 128 -21 724 -21
852 0 169 27 297 76 437 168 250 163 414 407 484 722 13 59 16 186 20 790 5
755 0 908 -36 1047 -26 99 -71 202 -128 292 -45 69 -169 201 -246 261 -38 30
-38 30 -57 155 -78 517 -285 970 -643 1415 -162 200 -216 255 -254 255 -19 0
-43 -10 -62 -26z m150 -295 c333 -402 528 -797 618 -1249 44 -221 53 -353 58
-850 6 -553 2 -599 -67 -737 -73 -148 -189 -250 -350 -307 l-85 -31 -265 0
-265 0 -85 31 c-161 57 -277 159 -350 307 -69 138 -73 186 -67 722 7 561 24
742 97 1036 100 398 289 751 579 1084 45 52 86 95 91 95 4 0 45 -45 91 -101z
m-1003 -2764 c41 -147 114 -268 227 -373 115 -108 271 -182 428 -202 109 -14
459 -12 547 4 275 49 516 255 604 517 39 118 46 214 46 672 0 483 -6 453 75
347 85 -111 142 -239 165 -370 8 -45 10 -315 8 -880 l-3 -815 -28 -90 c-104
-335 -361 -573 -702 -654 -104 -24 -806 -24 -910 0 -217 51 -414 176 -541 341
-64 82 -128 208 -161 313 l-28 90 -3 820 c-2 723 -1 829 13 900 29 140 100
284 192 386 l38 42 6 -484 c5 -458 7 -488 27 -564z"/>
<path d="M1902 997 c-25 -26 -29 -82 -8 -109 7 -10 25 -22 40 -28 38 -14 1214
-14 1252 0 37 15 53 38 54 81 0 24 -7 42 -23 57 l-23 22 -635 0 -636 0 -21
-23z"/>
<path d="M1905 655 c-44 -43 -30 -114 26 -134 45 -15 1213 -15 1258 0 56 20
70 91 26 134 l-24 25 -631 0 -631 0 -24 -25z"/>
</g>
</svg>
