<svg width="36" height="37" viewBox="0 0 36 37" fill="none" xmlns="http://www.w3.org/2000/svg">
<path d="M32.6617 8.4437C31.3526 6.34915 29.7163 4.64733 27.8836 3.33824C25.9854 2.02915 23.8908 1.04733 21.469 0.523696C17.5417 -0.458122 13.7454 5.97006e-05 10.0799 1.63642C8.05083 2.55279 6.2181 3.79642 4.71265 5.43279C2.74901 7.46188 1.37447 9.68733 0.523557 12.2401V12.3055C0.523557 12.371 0.458102 12.5019 0.458102 12.5673C-0.392807 15.5128 0.392648 17.0837 1.70174 15.7746C1.76719 15.7091 1.83265 15.6437 1.83265 15.5782L1.8981 15.5128C3.40356 13.6146 5.82537 12.0437 5.82537 12.0437C6.41446 11.651 7.06901 11.1928 7.72356 10.8655C8.50901 10.4073 9.29447 10.0146 10.0145 9.75279C10.0145 9.75279 10.669 9.42551 10.8654 8.50915V8.4437C10.9963 7.65824 11.8472 5.49824 14.2036 5.36733C14.9236 5.23642 15.709 5.36733 16.3636 5.6946C17.5417 6.21824 18.3926 7.33097 18.589 8.64006C18.7199 9.68733 18.4581 10.6691 17.9345 11.4546C17.9345 11.5201 17.869 11.5201 17.869 11.5855C17.869 11.5855 17.869 11.5855 17.869 11.651C17.4108 12.2401 16.8217 12.6982 16.0363 12.9601C15.5781 13.091 15.1199 13.2219 14.7272 13.2219C14.4654 13.2873 14.1381 13.2219 13.8763 13.1564C13.549 13.091 13.2217 12.9601 12.9599 12.8292C12.5017 12.6328 12.109 12.371 11.9781 12.2401C11.8472 12.1091 11.7817 12.1091 11.6508 12.0437C11.389 11.9782 11.1926 12.0437 11.0617 12.1091C10.9963 12.1746 10.9308 12.1746 10.8654 12.2401C10.2763 12.6982 9.75265 13.2219 9.22901 13.7455C7.85447 15.1855 6.74174 16.8219 6.2181 17.6073C5.95628 18.0655 5.69447 18.5237 5.43265 18.9819C5.17083 19.4401 4.97447 19.8982 4.7781 20.3564C4.25447 20.9455 3.92719 21.731 3.66537 22.5164C3.66537 22.5819 3.66537 22.5819 3.59992 22.6473C3.59992 22.7128 3.53447 22.7782 3.53447 22.7782C3.53447 22.8437 3.53447 22.9092 3.46901 22.9092C1.83265 28.5382 4.7781 31.811 7.26537 28.4073C7.39628 28.211 7.52719 27.9492 7.6581 27.7528C10.2763 23.2364 15.5781 19.9637 15.5781 19.9637C15.9054 19.7673 16.2326 19.571 16.5599 19.3746C16.5599 19.3746 16.5599 19.3746 16.6254 19.3091C17.5417 18.7855 18.4581 18.3273 19.4399 17.9346C20.2908 17.5419 21.2072 17.2146 21.9926 17.0182C21.9926 17.0182 22.909 16.7564 23.1054 15.7091C23.3017 14.9237 23.8254 13.7455 25.1345 13.1564C25.4617 13.0255 25.7236 12.8946 26.0508 12.8292C26.3781 12.7637 26.7708 12.6982 27.0981 12.7637C27.2945 12.7637 27.4908 12.7637 27.6872 12.8292C29.3236 13.1564 30.6326 14.4655 30.829 16.2328C31.0908 18.3928 29.5854 20.291 27.4254 20.5528C26.3781 20.6837 25.3963 20.4219 24.6108 19.8328C23.6945 19.4401 22.9745 19.7019 22.7126 19.8328C21.9272 20.291 21.1417 20.7492 20.4217 21.2728C19.0472 22.3201 17.9345 23.3673 17.5417 23.7601C16.6254 24.7419 15.7745 25.7891 15.0545 26.9019C14.989 26.9673 14.989 27.0328 14.9236 27.0982C14.9236 27.0982 14.9236 27.0982 14.9236 27.1637C14.2036 28.3419 13.3526 29.9128 12.6981 31.7455C12.6326 31.8764 12.5672 32.0073 12.5672 32.2037C11.8472 34.5601 13.4181 35.5419 15.1199 35.8691C15.1199 35.8691 16.4945 36.131 18.4581 36.0001C18.589 36.0001 18.6545 36.0001 18.7854 36.0001C19.309 35.9346 19.7672 35.8692 20.2908 35.8037C23.6945 35.2146 26.7054 33.7746 29.3236 31.4837C32.5963 28.5382 34.5599 24.9382 35.149 20.6182C35.869 16.1673 35.0181 12.1091 32.6617 8.4437Z" fill="#FFC40C"/>
</svg>
