<svg xmlns="http://www.w3.org/2000/svg" viewBox="0 0 123.1 135.5" xml:space="preserve"><path fill-rule="evenodd" clip-rule="evenodd" fill="#7D3DAF" d="M120.1 82.4c4-18.5 4-37.2 0-55.6-2.4-9.5-14.8-21.4-24.6-23.6-22.5-4.3-45.3-4.3-67.8 0C17.8 5.4 5.4 17.3 3 26.8-1 45.3-1 64 3 82.4 5.4 92 17.8 103.8 27.7 106c.4.1.8.5.8.9V134c0 1.4 1.6 2 2.6 1l12.8-13.2L56 109.4c.2-.2.4-.3.7-.3 13 .4 26-.7 38.8-3.1 9.8-2.2 22.2-14 24.6-23.6z"/><g fill-rule="evenodd" clip-rule="evenodd" fill="#FFF"><path d="M83 94.9c-1.5-.5-3-.8-4.3-1.3C64.8 87.8 52 80.4 41.9 69c-5.8-6.5-10.3-13.8-14.1-21.5-1.8-3.7-3.3-7.5-4.9-11.3-1.4-3.4.7-7 2.9-9.6 2.1-2.4 4.7-4.3 7.6-5.7 2.2-1.1 4.4-.5 6.1 1.4 3.5 4.1 6.8 8.4 9.4 13.2 1.6 2.9 1.2 6.5-1.8 8.5-.7.5-1.4 1-2 1.6-.6.5-1.1 1-1.5 1.6-.7 1.2-.8 2.6-.3 3.9C46.9 61 53 68.8 63 72.9c1.6.7 3.2 1.4 5.1 1.2 3.1-.4 4.1-3.7 6.2-5.5 2.1-1.7 4.8-1.8 7.1-.3s4.5 3 6.7 4.6c2.2 1.5 4.3 3 6.3 4.8 1.9 1.7 2.6 3.9 1.5 6.2-2 4.2-4.8 7.7-9 9.9-1.2.5-2.6.7-3.9 1.1-.3-.1-.5-.2-.5-.2.1-.2 1.5-.1.5.2zM61.6 16.2c18.1.5 33.1 12.5 36.3 30.5.5 3.1.7 6.2 1 9.3.1 1.3-.6 2.5-2 2.6-1.5 0-2.1-1.2-2.2-2.5-.2-2.6-.3-5.2-.7-7.7-2-13.6-12.7-24.8-26.2-27.2-2-.4-4.1-.5-6.1-.7-1.3-.1-3-.2-3.3-1.8-.2-1.4.9-2.4 2.2-2.5h1c6 .2 8 .2 8 .2s-8.2-.2-8-.2z"/><path d="M89.2 51.9c0 .2 0 .8-.2 1.3-.5 1.8-3.2 2.1-3.9.2-.2-.6-.2-1.2-.2-1.8 0-3.8-.8-7.7-2.8-11-2-3.4-5-6.3-8.6-8.1-2.2-1.1-4.5-1.7-6.9-2.1-1-.2-2.1-.3-3.1-.4-1.3-.2-1.9-1-1.9-2.2.1-1.2.9-2 2.2-1.9C68 26.1 72 27 75.7 29c7.5 4 11.8 10.3 13.1 18.7.1.4.2.8.2 1.1.1.9.1 1.9.2 3.1v-.5.5z"/><path d="M77.9 51.5c-1.5 0-2.3-.8-2.5-2.2-.1-1-.2-1.9-.4-2.9-.5-1.9-1.4-3.6-3-4.7-.7-.5-1.6-.9-2.4-1.2-1.1-.3-2.3-.2-3.4-.5-1.2-.3-1.9-1.3-1.7-2.4.2-1 1.2-1.8 2.3-1.8 7 .5 12.1 4.1 12.8 12.4 0 .6.1 1.2 0 1.8-.3 1-1 1.4-1.7 1.5h-.5.5z"/></g></svg>