<svg xmlns="http://www.w3.org/2000/svg" viewBox="0 0 136 136" xml:space="preserve"><g fill-rule="evenodd" clip-rule="evenodd"><path fill="#689BD7" d="M0 68C0 30.4 30.4 0 68 0s68 30.4 68 68-30.4 68-68 68S0 105.6 0 68z"/><path fill="#FFF" d="M109 30.1c0 .5-1.9 9.7-3 14.6-4.3 20.5-7.9 41.3-13.5 61.8-.5 2.2-2.2 2.4-3.5 2.4-4.1 0-15.4-9.7-17.3-11.3-3-2.2-8.7-6.8-9.5-6.8 0 0-12.5 12.7-14.6 12.7h-1.1v-.8c.5-4.3.8-8.7 1.1-13 .3-3 .5-6.2.8-9.2 14-13.1 28.6-26.6 43.3-40.1-.6-.5-1.1-1.1-1.4-.8L35 73.6c-4.6-1.6-9.5-3.2-14.1-4.6C19 68.5 9 66.9 9 63.9c0-3.8 6.8-5.1 8.7-5.9 3.5-1.9 7.6-3 11.4-4.3 8.7-3.2 18.2-7 27.4-10.5 5.1-1.9 45.8-18.1 48.2-18.1 3.5-.1 4.3 3.1 4.3 5z"/></g></svg>