<svg xmlns="http://www.w3.org/2000/svg" viewBox="0 0 136 136" xml:space="preserve"><path fill-rule="evenodd" clip-rule="evenodd" fill="#47E864" d="M48.8 36.8c2.7 4.3 7 13.9 7 15.5 0 1.1-4.8 8-4.8 9.6 0 6.9 21.4 22.4 25.1 22.4 4.3 0 6.4-6.4 10.2-6.4 1.1 0 11.2 2.7 16.1 5.3 1.1.5 2.1 2.1 2.1 3.7s-5.3 8.5-8 10.1c-5.4 3.2-7 3.2-11.2 3.2C65 100.2 34 73 34 51.7c0-3.7 3.2-16.5 11.2-16.5 1.5 0 3.1 0 3.6 1.6zm71.7 30.9c0 29.9-25.7 52.3-53 52.3-15.5 0-27.8-8-28.9-8s-12.3 3.2-19.8 4.8l4.3-20.3c-5.9-9.6-8-20.3-8-29.9 0-29.3 24.6-51.7 52.4-51.7 30.5 0 53 25.1 53 52.8zm15.5.6c0 38.4-34.2 67.2-69 67.2-8.6 0-21.9-3.7-30-7.5l-34.2 8c-2.1 0-3.2-2.1-2.7-3.2L7 98.7C6 94.4.1 80.5.1 75.7V58.1C7.1 18.1 39.2 0 67.5 0c38 0 68.5 30.9 68.5 68.3z"/></svg>